<?xml version="1.0" encoding="UTF-8" standalone="no"?>
<svg
   width="61"
   height="7.9810982"
   id="screenshot-ff6a1b56-2b97-804e-8007-f1eb137d0997"
   viewBox="1136.4 2476.5 61 7.9810982"
   fill="none"
   version="1.1"
   sodipodi:docname="mii-underline.svg"
   inkscape:version="1.4.2 (f4327f4, 2025-05-13)"
   xmlns:inkscape="http://www.inkscape.org/namespaces/inkscape"
   xmlns:sodipodi="http://sodipodi.sourceforge.net/DTD/sodipodi-0.dtd"
   xmlns="http://www.w3.org/2000/svg"
   xmlns:svg="http://www.w3.org/2000/svg">
  <defs
     id="defs2" />
  <sodipodi:namedview
     id="namedview2"
     pagecolor="#505050"
     bordercolor="#eeeeee"
     borderopacity="1"
     inkscape:showpageshadow="0"
     inkscape:pageopacity="0"
     inkscape:pagecheckerboard="0"
     inkscape:deskcolor="#505050"
     inkscape:zoom="8.1829268"
     inkscape:cx="29.695976"
     inkscape:cy="8.5543964"
     inkscape:window-width="1440"
     inkscape:window-height="878"
     inkscape:window-x="-6"
     inkscape:window-y="-6"
     inkscape:window-maximized="1"
     inkscape:current-layer="screenshot-ff6a1b56-2b97-804e-8007-f1eb137d0997" />
  <g
     id="shape-ff6a1b56-2b97-804e-8007-f1eb137d0997"
     transform="translate(-10.500146,-10.514213)">
    <g
       class="fills"
       id="fills-ff6a1b56-2b97-804e-8007-f1eb137d0997">
      <path
         d="m 1149.4001,2490.5361 c 0,0 4.6028,-1.3862 7.6714,0.4619 3.0684,1.8482 3.8355,1.3863 4.9864,0.9241 3.7988,-1.5251 5.7531,-3.2341 9.2053,-1.8479 5.6489,2.2681 5.1123,2.6187 9.2053,1.386 4.603,-1.386 6.5208,-2.7722 9.2056,-1.386 0.5293,0.273 0.9836,0.5308 1.3794,0.771 3.1919,1.9365 4.3742,2.001 6.6753,1.0769 4.603,-1.8479 3.4521,-3.2341 7.6713,-1.8479"
         id="path1" />
    </g>
    <g
       id="strokes-103f3ee0-84ba-8090-8008-03db4afd03ab-ff6a1b56-2b97-804e-8007-f1eb137d0997"
       class="strokes">
      <g
         class="stroke-shape"
         id="g2">
        <path
           d="m 1149.4001,2490.5361 c 0,0 4.6028,-1.3862 7.6714,0.4619 3.0684,1.8482 3.8355,1.3863 4.9864,0.9241 3.7988,-1.5251 5.7531,-3.2341 9.2053,-1.8479 5.6489,2.2681 5.1123,2.6187 9.2053,1.386 4.603,-1.386 6.5208,-2.7722 9.2056,-1.386 0.5293,0.273 0.9836,0.5308 1.3794,0.771 3.1919,1.9365 4.3742,2.001 6.6753,1.0769 4.603,-1.8479 3.4521,-3.2341 7.6713,-1.8479"
           style="fill:none;stroke:#ffc200;stroke-width:5;stroke-linecap:round;stroke-opacity:1"
           id="path2" />
      </g>
    </g>
  </g>
</svg>
